<!DOCTYPE svg PUBLIC "-//W3C//DTD SVG 1.1//EN" "http://www.w3.org/Graphics/SVG/1.1/DTD/svg11.dtd">
<!-- Uploaded to: SVG Repo, www.svgrepo.com, Transformed by: SVG Repo Mixer Tools -->
<svg fill="#ec332e" height="800px" width="800px" version="1.1" id="Layer_1" xmlns="http://www.w3.org/2000/svg" xmlns:xlink="http://www.w3.org/1999/xlink" viewBox="0 0 295.24 295.24" xml:space="preserve" stroke="#ec332e" stroke-width="0.00295238">
<g id="SVGRepo_bgCarrier" stroke-width="0"/>
<g id="SVGRepo_tracerCarrier" stroke-linecap="round" stroke-linejoin="round"/>
<g id="SVGRepo_iconCarrier"> <g> <g> <g> <path d="M289.895,264.115l-25.871-25.877c19.533-25.033,31.214-56.476,31.214-90.619C295.238,66.224,229.014,0,147.619,0 S0,66.224,0,147.619s66.224,147.619,147.619,147.619c34.143,0,65.586-11.681,90.619-31.214l25.876,25.876 c3.448,3.443,8.024,5.338,12.891,5.338c10.057,0,18.233-8.176,18.233-18.233C295.238,272.138,293.343,267.557,289.895,264.115z M260.939,226.405c-3.729-2.743-10.01-6.691-19.477-10.724l-19.352-19.352c3.838-14.01,5.933-28.757,6.3-43.948h57.186 C284.658,179.833,275.686,205.262,260.939,226.405z M285.595,142.858h-57.138v-0.001c-0.51-21-4.314-39.51-10.043-55.614 c23.081-5.976,36.357-13.843,42.538-18.39C275.69,89.991,284.657,115.415,285.595,142.858z M188.933,163.152 c2.081-3.433,3.933-7.014,5.457-10.771h24.495c-0.314,12.424-1.857,24.514-4.619,36.105L188.933,163.152z M193.266,180.953 l-12.314,12.314l-9.838-9.838c4.562-3.624,8.686-7.752,12.314-12.314L193.266,180.953z M197.49,142.857 c1.581-6.1,2.51-12.462,2.51-19.048c0-11.281-2.529-21.957-6.948-31.6c5.729-0.81,11.071-1.743,16.019-2.781 c5.591,15.415,9.343,33.186,9.862,53.429H197.49z M255.224,61.205c-5.376,3.914-17.886,11.395-40.295,17.081 C200.624,44.3,178.286,22.143,163.871,10.51C200.686,14.852,233.1,33.71,255.224,61.205z M152.381,13.648 c12.233,8.895,37.462,30.557,53.133,66.79c-5.295,1.081-11.076,2.024-17.319,2.819c-8.471-13.405-20.962-23.995-35.814-30.033 V13.648z M131.119,10.543c-10.748,8.6-25.781,22.986-38.729,43.933c-10.119,4.605-19.048,11.338-26.229,19.652 C52.452,69.362,44.138,64.233,40,61.214C62.081,33.776,94.405,14.938,131.119,10.543z M142.857,13.629v36.5 c-6.1-1.581-12.462-2.51-19.048-2.51c-5.714,0-11.257,0.681-16.614,1.881C120.347,31.4,134.576,19.605,142.857,13.629z M34.291,68.844c4.514,3.314,12.781,8.405,25.843,13.243c-7.886,11.994-12.515,26.323-12.515,41.723 c0,6.586,0.929,12.948,2.51,19.048H9.643C10.581,115.415,19.553,89.987,34.291,68.844z M9.643,152.381h43.586 c3.657,9.005,8.995,17.138,15.614,24.048c1.748,11.41,4.452,21.9,7.824,31.533c-23.062,5.971-36.21,13.857-42.386,18.414 C19.548,205.238,10.581,179.819,9.643,152.381z M39.986,233.995c5.333-3.919,17.686-11.405,40.076-17.071 c14.181,34.21,36.438,56.186,50.957,67.757C94.333,280.262,62.043,261.424,39.986,233.995z M142.857,281.59 c-12.252-8.886-37.562-30.562-53.224-66.838c14.21-2.871,31.791-4.914,53.224-5.181V281.59z M142.858,200.047 c-22.9,0.281-41.643,2.538-56.79,5.719c-2.211-6.099-4.125-12.576-5.668-19.423C92.729,194.929,107.681,200,123.81,200 c6.586,0,12.948-0.929,19.048-2.51V200.047z M123.81,190.477c-36.762,0-66.667-29.905-66.667-66.667 c0-36.762,29.905-66.667,66.667-66.667s66.667,29.905,66.667,66.667C190.477,160.572,160.572,190.477,123.81,190.477z M152.381,194.39c3.757-1.529,7.338-3.376,10.771-5.457l12.157,12.157c-7.41-0.586-15.067-0.924-22.929-1.024 C152.381,200.067,152.381,194.39,152.381,194.39z M152.381,209.59c11.7,0.152,22.952,0.843,33.519,2.09l14.357,14.357 c-15.543,29.538-36.924,47.652-47.876,55.562V209.59z M164.143,284.69c12.024-9.614,29.386-26.486,43.152-51.614l24.167,24.167 C212.329,271.914,189.267,281.681,164.143,284.69z M238.848,251.162L187.686,200L200,187.686l51.162,51.162 C247.319,243.205,243.205,247.319,238.848,251.162z M277.005,285.714c-2.324,0-4.51-0.905-6.157-2.552l-25.257-25.257 c4.343-3.862,8.452-7.971,12.314-12.314l25.257,25.257c1.648,1.648,2.552,3.833,2.552,6.157 C285.714,281.81,281.81,285.714,277.005,285.714z"/> <path d="M123.81,66.666c-31.51,0-57.143,25.634-57.143,57.144s25.633,57.142,57.143,57.142s57.143-25.633,57.143-57.143 S155.32,66.666,123.81,66.666z M142.858,167.424c-5.838,2.562-12.276,4.005-19.048,4.005c-6.772,0-13.21-1.443-19.048-4.005 v-10.281c0-10.505,8.543-19.048,19.048-19.048s19.048,8.543,19.048,19.048V167.424z M109.524,109.524 c0-7.876,6.41-14.286,14.286-14.286c7.876,0,14.286,6.41,14.286,14.286s-6.41,14.286-14.286,14.286 C115.934,123.81,109.524,117.4,109.524,109.524z M152.381,161.814v-4.671c0-11.967-7.405-22.224-17.867-26.471 c7.738-3.938,13.105-11.89,13.105-21.148c0-13.129-10.681-23.81-23.81-23.81c-13.129,0-23.809,10.681-23.809,23.81 c0,9.257,5.367,17.21,13.105,21.148c-10.462,4.248-17.867,14.505-17.867,26.471v4.671c-11.538-8.7-19.048-22.471-19.048-38.005 c0-26.257,21.362-47.619,47.62-47.619c26.257,0,47.619,21.362,47.619,47.619C171.429,139.342,163.919,153.114,152.381,161.814z"/> </g> </g> </g> </g>
</svg>